<svg fill="#861001" xmlns="http://www.w3.org/2000/svg" xmlns:xlink="http://www.w3.org/1999/xlink" version="1.1" x="0px" y="0px" viewBox="0 0 350 350" style="enable-background:new 0 0 350 350;" xml:space="preserve"><g><path d="M325.908,304.496v-21.047h-11.781l-9.469-22.781V129.057l8.998-21.648h14.662V86.695L175,10.037L21.682,86.695v20.713   h14.662l8.996,21.644v131.621l-9.467,22.776H24.092v21.047H0v35.467h350v-35.467H325.908z M263.443,263.217   c0,8.035-3.601,15.155-9.112,19.521c-0.311,0.246-0.628,0.483-0.951,0.712c-3.392,2.398-7.419,3.797-11.739,3.797h-56.197   c-3.707,0-7.275-1.016-10.445-2.928c-3.169,1.912-6.737,2.928-10.443,2.928h-56.195c-4.321,0-8.349-1.398-11.741-3.797   c-0.323-0.228-0.641-0.467-0.953-0.713c-5.511-4.365-9.111-11.484-9.111-19.52l-0.057-134.17l8.994-21.639h49.931l8.999,21.652   v23.436h11.203c3.301,0,6.501,0.849,9.375,2.447c2.875-1.599,6.075-2.447,9.375-2.447h11.203v-23.439l8.997-21.648h49.931   l8.996,21.644L263.443,263.217z"></path><path d="M247.311,166.994c-2.451-4.654-6.91-7.773-12.004-7.773h-50.932c-3.6,0-6.893,1.563-9.377,4.125   c-2.48-2.563-5.773-4.125-9.373-4.125h-50.934c-5.092,0-9.557,3.119-12.004,7.773c-5.512,2.572-9.408,8.785-9.408,16.027v80.195   c0,9.543,6.762,17.305,15.08,17.305h56.195c4.053,0,7.727-1.852,10.443-4.842c2.717,2.99,6.393,4.842,10.445,4.842h56.197   c8.314,0,15.078-7.762,15.078-17.305v-80.195C256.719,175.779,252.826,169.566,247.311,166.994z M170.373,253.176   c0,3.656-2.176,6.74-4.748,6.74h-50.934c-2.568,0-4.74-3.084-4.74-6.74v-77.957c0-3.652,2.172-6.736,4.74-6.736h50.934   c2.572,0,4.748,3.084,4.748,6.736V253.176z M240.047,253.176c0,3.656-2.168,6.74-4.74,6.74h-50.932c-2.574,0-4.75-3.084-4.75-6.74   v-77.957c0-3.652,2.176-6.736,4.75-6.736h50.932c2.572,0,4.74,3.084,4.74,6.736V253.176z"></path><rect x="119.17" y="178.607" width="41.266" height="4.857"></rect><rect x="189.564" y="178.607" width="41.264" height="4.857"></rect><rect x="119.17" y="194.787" width="41.266" height="4.857"></rect><rect x="189.564" y="194.787" width="41.264" height="4.857"></rect><rect x="119.17" y="210.973" width="41.266" height="4.853"></rect><rect x="189.564" y="210.973" width="41.264" height="4.853"></rect><rect x="119.17" y="227.15" width="41.266" height="4.856"></rect><rect x="189.564" y="227.15" width="41.264" height="4.856"></rect><rect x="119.17" y="243.332" width="41.266" height="4.856"></rect><rect x="189.564" y="243.332" width="41.264" height="4.856"></rect></g></svg>